# xmcd
#
# Track frame offsets:
#	150
#	16051
#	31762
#	47808
#	60984
#	76930
#	88931
#	103848
#	119845
#	135431
#	151678
#	168113
#
# Disc length: 2448 seconds
#
# Revision: 3643108729
# Processed by: cddbd v1.5.2PL0 Copyright (c) Steve Scherf et al.
# Submitted via: EZCDAudioConverter 8.5.0.1
#
DISCID=88098e0c
DTITLE=Rodney Atkins - It's America
DYEAR=2010
DGENRE=Country
TTITLE0=Tell A Country Boy
TTITLE1=Chasin' Girls
TTITLE2=Got It Good
TTITLE3=Best Things
TTITLE4=Friends With Tractors
TTITLE5=15 Minutes
TTITLE6=Simple Things
TTITLE7=It's America
TTITLE8=Rockin' Of The Cradle
TTITLE9=When It's My Time
TTITLE10=The River Just Knows
TTITLE11=Farmer's Daughter
EXTD=
EXTT0=
EXTT1=
EXTT2=
EXTT3=
EXTT4=
EXTT5=
EXTT6=
EXTT7=
EXTT8=
EXTT9=
EXTT10=
EXTT11=
PLAYORDER=
